# Blender v2.80 (sub 75) OBJ File: ''
# www.blender.org
mtllib cube_holes3.mtl
o Cube
v -0.900000 -0.900000 0.900000
v -0.900000 0.900000 0.900000
v -0.900000 -0.900000 -0.900000
v -0.900000 0.900000 -0.900000
v -0.904341 -0.900000 0.900000
v -0.904341 0.900000 0.900000
v -0.904341 -0.900000 -0.900000
v -0.904341 0.900000 -0.900000
v 1.000000 1.000000 -1.000000
v 1.000000 -1.000000 -1.000000
v 1.000000 1.000000 1.000000
v 1.000000 -1.000000 1.000000
v -1.000000 1.000000 -1.000000
v -1.000000 -1.000000 -1.000000
v -1.000000 1.000000 1.000000
v -1.000000 -1.000000 1.000000
v 1.000000 -0.100000 0.750000
v -0.904341 -0.100000 0.750000
v 1.000000 -0.100000 0.550000
v -0.904341 -0.100000 0.550000
v 1.000000 0.100000 0.750000
v -0.904341 0.100000 0.750000
v 1.000000 0.100000 0.550000
v -0.904341 0.100000 0.550000
v 1.000000 0.550000 0.750000
v -0.904341 0.550000 0.750000
v 1.000000 0.550000 0.550000
v -0.904341 0.550000 0.550000
v 1.000000 0.750000 0.750000
v -0.904341 0.750000 0.750000
v 1.000000 0.750000 0.550000
v -0.904341 0.750000 0.550000
v -0.904341 -0.750000 0.750000
v 1.000000 -0.750000 0.750000
v -0.904341 -0.750000 0.550000
v 1.000000 -0.750000 0.550000
v -0.904341 -0.550000 0.750000
v 1.000000 -0.550000 0.750000
v -0.904341 -0.550000 0.550000
v 1.000000 -0.550000 0.550000
v 1.000000 0.550000 -0.550000
v -0.904341 0.550000 -0.550000
v 1.000000 0.550000 -0.750000
v -0.904341 0.550000 -0.750000
v 1.000000 0.750000 -0.550000
v 1.000000 0.738710 -0.550000
v -0.904341 0.750000 -0.550000
v 1.000000 0.750000 -0.750000
v -0.904341 0.750000 -0.750000
v 1.000000 0.750000 -0.569444
v 1.000000 -0.750000 -0.550000
v -0.904341 -0.750000 -0.550000
v 1.000000 -0.750000 -0.750000
v -0.904341 -0.750000 -0.628125
v -0.904341 -0.750000 -0.750000
v 1.000000 -0.550000 -0.550000
v -0.904341 -0.550000 -0.550000
v 1.000000 -0.550000 -0.750000
v -0.904341 -0.550000 -0.750000
v -0.904341 -0.706896 -0.550000
v -0.904341 -0.100000 -0.550000
v 1.000000 -0.100000 -0.550000
v 1.000000 -0.100000 -0.750000
v -0.904341 -0.100000 -0.750000
v -0.904341 0.100000 -0.550000
v 1.000000 0.100000 -0.550000
v 1.000000 0.100000 -0.750000
v -0.904341 0.100000 -0.750000
vt 0.375000 0.250000
vt 0.625000 0.000000
vt 0.375000 0.000000
vt 0.375000 0.500000
vt 0.625000 0.250000
vt 0.423611 0.701389
vt 0.423611 0.729167
vt 0.486111 0.729167
vt 0.375000 1.000000
vt 0.625000 0.750000
vt 0.375000 0.750000
vt 0.125000 0.750000
vt 0.125000 0.500000
vt 0.875000 0.500000
vt 0.625000 0.500000
vt 0.625000 0.000000
vt 0.375000 0.250000
vt 0.375000 0.000000
vt 0.625000 0.250000
vt 0.375000 0.500000
vt 0.375000 0.250000
vt 0.625000 0.500000
vt 0.375000 0.750000
vt 0.625000 0.750000
vt 0.375000 1.000000
vt 0.125000 0.500000
vt 0.156250 0.693750
vt 0.125000 0.750000
vt 0.875000 0.500000
vt 0.625000 0.500000
vt 0.375000 0.375000
vt 0.625000 0.312500
vt 0.375000 0.312500
vt 0.318750 0.693750
vt 0.318750 0.718750
vt 0.262500 0.718750
vt 0.485940 0.548440
vt 0.486043 0.520765
vt 0.423611 0.520833
vt 0.250000 0.750000
vt 0.187500 0.500000
vt 0.187500 0.750000
vt 0.750000 0.750000
vt 0.812500 0.500000
vt 0.750000 0.500000
vt 0.375000 0.937500
vt 0.625000 0.875000
vt 0.375000 0.875000
vt 0.343750 0.693750
vt 0.375000 0.500000
vt 0.375000 0.750000
vt 0.375000 0.375000
vt 0.625000 0.312500
vt 0.375000 0.312500
vt 0.604167 0.701389
vt 0.250000 0.750000
vt 0.187500 0.500000
vt 0.187500 0.750000
vt 0.812500 0.750000
vt 0.750000 0.500000
vt 0.750000 0.750000
vt 0.375000 0.937500
vt 0.625000 0.875000
vt 0.375000 0.875000
vt 0.375000 0.375000
vt 0.625000 0.312500
vt 0.375000 0.312500
vt 0.262500 0.531250
vt 0.237500 0.531250
vt 0.395833 0.701389
vt 0.250000 0.750000
vt 0.187500 0.500000
vt 0.187500 0.750000
vt 0.812500 0.750000
vt 0.750000 0.500000
vt 0.750000 0.750000
vt 0.375000 0.937500
vt 0.625000 0.875000
vt 0.375000 0.875000
vt 0.375000 0.312500
vt 0.625000 0.375000
vt 0.625000 0.312500
vt 0.604167 0.520833
vt 0.604167 0.548611
vt 0.187500 0.750000
vt 0.250000 0.500000
vt 0.187500 0.500000
vt 0.812500 0.500000
vt 0.750000 0.500000
vt 0.750000 0.725694
vt 0.625000 0.937500
vt 0.625000 0.875000
vt 0.610887 0.875000
vt 0.156250 0.531250
vt 0.156250 0.556250
vt 0.375000 0.375000
vt 0.625000 0.312500
vt 0.375000 0.312500
vt 0.250000 0.500000
vt 0.187500 0.500000
vt 0.187500 0.652344
vt 0.812500 0.750000
vt 0.750000 0.500000
vt 0.750000 0.750000
vt 0.428880 0.937500
vt 0.625000 0.937500
vt 0.625000 0.875000
vt 0.343750 0.531250
vt 0.318750 0.531250
vt 0.375000 0.375000
vt 0.625000 0.312500
vt 0.375000 0.312500
vt 0.513889 0.729167
vt 0.576389 0.729167
vt 0.250000 0.750000
vt 0.187500 0.500000
vt 0.187500 0.750000
vt 0.812500 0.750000
vt 0.750000 0.500000
vt 0.750000 0.750000
vt 0.375000 0.937500
vt 0.625000 0.875000
vt 0.375000 0.875000
vt 0.395833 0.548611
vt 0.401820 0.548611
vt 0.486111 0.701389
vt 0.395833 0.537760
vt 0.625000 1.000000
vt 0.875000 0.750000
vt 0.625000 0.250000
vt 0.625000 0.750000
vt 0.625000 1.000000
vt 0.181250 0.693750
vt 0.156250 0.718750
vt 0.875000 0.750000
vt 0.625000 0.375000
vt 0.237500 0.718750
vt 0.262500 0.693750
vt 0.342339 0.556250
vt 0.343750 0.556250
vt 0.343750 0.553819
vt 0.423611 0.548611
vt 0.513889 0.701389
vt 0.513795 0.548517
vt 0.404157 0.529157
vt 0.250000 0.500000
vt 0.812500 0.750000
vt 0.625000 0.937500
vt 0.343750 0.718750
vt 0.625000 0.375000
vt 0.576389 0.701389
vt 0.604167 0.729167
vt 0.250000 0.500000
vt 0.812500 0.500000
vt 0.625000 0.937500
vt 0.625000 0.375000
vt 0.181250 0.718750
vt 0.181250 0.556250
vt 0.237500 0.693750
vt 0.181250 0.531250
vt 0.237500 0.556250
vt 0.395833 0.729167
vt 0.250000 0.500000
vt 0.812500 0.500000
vt 0.625000 0.937500
vt 0.375000 0.375000
vt 0.576389 0.520833
vt 0.250000 0.750000
vt 0.750000 0.750000
vt 0.812500 0.750000
vt 0.375000 0.875000
vt 0.375000 0.937500
vt 0.625000 0.375000
vt 0.187500 0.750000
vt 0.250000 0.750000
vt 0.812500 0.500000
vt 0.375000 0.875000
vt 0.375000 0.937500
vt 0.262500 0.556250
vt 0.318750 0.556250
vt 0.625000 0.375000
vt 0.513849 0.520793
vt 0.576389 0.548611
vt 0.250000 0.500000
vt 0.812500 0.500000
vt 0.625000 0.937500
vn 1.0000 0.0000 0.0000
vn 0.0000 0.0000 -1.0000
vn -1.0000 0.0000 0.0000
vn 0.0000 0.0000 1.0000
vn 0.0000 -1.0000 0.0000
vn 0.0000 1.0000 0.0000
usemtl Material
s off
f 3/1/1 2/2/1 1/3/1
f 7/4/2 4/5/2 3/1/2
f 39/6/3 37/7/3 18/8/3
f 1/9/4 6/10/4 5/11/4
f 1/12/5 7/4/5 3/13/5
f 6/10/6 4/14/6 8/15/6
f 13/16/6 11/17/6 9/18/6
f 11/19/4 16/20/4 12/21/4
f 15/22/3 14/23/3 16/20/3
f 10/24/5 16/25/5 14/23/5
f 10/26/1 36/27/1 12/28/1
f 13/29/2 10/24/2 14/30/2
f 19/31/4 24/32/4 20/33/4
f 27/34/1 25/35/1 21/36/1
f 61/37/3 64/38/3 59/39/3
f 17/40/6 20/41/6 18/42/6
f 21/43/5 24/44/5 23/45/5
f 18/46/2 21/47/2 17/48/2
f 31/49/1 9/50/1 11/51/1
f 27/52/4 32/53/4 28/54/4
f 8/15/3 32/55/3 6/10/3
f 25/56/6 28/57/6 26/58/6
f 30/59/5 31/60/5 29/61/5
f 26/62/2 29/63/2 25/64/2
f 36/65/4 39/66/4 35/67/4
f 9/50/1 67/68/1 63/69/1
f 35/70/3 7/4/3 5/11/3
f 34/71/6 35/72/6 33/73/6
f 37/74/5 40/75/5 38/76/5
f 33/77/2 38/78/2 34/79/2
f 44/80/4 48/81/4 49/82/4
f 8/15/3 49/83/3 47/84/3
f 42/85/6 43/86/6 44/87/6
f 49/88/5 48/89/5 50/90/5
f 47/91/2 45/92/2 46/93/2
f 10/26/1 53/94/1 51/95/1
f 53/96/4 59/97/4 55/98/4
f 53/99/6 55/100/6 54/101/6
f 57/102/5 58/103/5 56/104/5
f 60/105/2 57/106/2 56/107/2
f 9/50/1 48/108/1 43/109/1
f 63/110/4 68/111/4 64/112/4
f 22/113/3 6/10/3 26/114/3
f 62/115/6 64/116/6 61/117/6
f 65/118/5 67/119/5 66/120/5
f 61/121/2 66/122/2 62/123/2
f 3/1/1 4/5/1 2/2/1
f 7/4/2 8/15/2 4/5/2
f 7/4/3 35/70/3 52/124/3
f 35/70/3 39/6/3 60/125/3
f 52/124/3 35/70/3 60/125/3
f 37/7/3 5/11/3 18/8/3
f 5/11/3 6/10/3 18/8/3
f 6/10/3 22/113/3 18/8/3
f 18/8/3 20/126/3 39/6/3
f 20/126/3 60/125/3 39/6/3
f 52/124/3 54/127/3 7/4/3
f 1/9/4 2/128/4 6/10/4
f 1/12/5 5/11/5 7/4/5
f 6/10/6 2/129/6 4/14/6
f 13/16/6 15/130/6 11/17/6
f 11/19/4 15/22/4 16/20/4
f 15/22/3 13/131/3 14/23/3
f 10/24/5 12/132/5 16/25/5
f 10/26/1 40/133/1 36/27/1
f 36/27/1 34/134/1 12/28/1
f 13/29/2 9/135/2 10/24/2
f 19/31/4 23/136/4 24/32/4
f 11/51/1 12/28/1 17/137/1
f 21/36/1 23/138/1 27/34/1
f 23/138/1 46/139/1 27/34/1
f 11/51/1 17/137/1 21/36/1
f 25/35/1 11/51/1 21/36/1
f 46/139/1 45/140/1 31/49/1
f 27/34/1 46/139/1 31/49/1
f 45/140/1 50/141/1 9/50/1
f 9/50/1 31/49/1 45/140/1
f 60/125/3 20/126/3 57/142/3
f 20/126/3 24/143/3 61/37/3
f 24/143/3 65/144/3 61/37/3
f 7/4/3 54/127/3 55/145/3
f 7/4/3 55/145/3 59/39/3
f 20/126/3 61/37/3 57/142/3
f 64/38/3 7/4/3 59/39/3
f 59/39/3 57/142/3 61/37/3
f 17/40/6 19/146/6 20/41/6
f 21/43/5 22/147/5 24/44/5
f 18/46/2 22/148/2 21/47/2
f 11/51/1 25/35/1 29/149/1
f 29/149/1 31/49/1 11/51/1
f 27/52/4 31/150/4 32/53/4
f 8/15/3 28/151/3 32/55/3
f 32/55/3 30/152/3 6/10/3
f 25/56/6 27/153/6 28/57/6
f 30/59/5 32/154/5 31/60/5
f 26/62/2 30/155/2 29/63/2
f 36/65/4 40/156/4 39/66/4
f 12/28/1 34/134/1 38/157/1
f 40/133/1 51/95/1 56/158/1
f 17/137/1 12/28/1 38/157/1
f 40/133/1 56/158/1 19/159/1
f 56/158/1 58/160/1 62/161/1
f 19/159/1 56/158/1 62/161/1
f 17/137/1 38/157/1 40/133/1
f 63/69/1 62/161/1 58/160/1
f 19/159/1 17/137/1 40/133/1
f 58/160/1 10/26/1 63/69/1
f 10/26/1 9/50/1 63/69/1
f 5/11/3 37/7/3 33/162/3
f 33/162/3 35/70/3 5/11/3
f 34/71/6 36/163/6 35/72/6
f 37/74/5 39/164/5 40/75/5
f 33/77/2 37/165/2 38/78/2
f 44/80/4 43/166/4 48/81/4
f 8/15/3 44/167/3 49/83/3
f 47/84/3 28/151/3 8/15/3
f 42/85/6 41/168/6 43/86/6
f 50/90/5 45/169/5 47/170/5
f 47/170/5 49/88/5 50/90/5
f 46/93/2 41/171/2 42/172/2
f 42/172/2 47/91/2 46/93/2
f 10/26/1 58/160/1 53/94/1
f 51/95/1 40/133/1 10/26/1
f 53/96/4 58/173/4 59/97/4
f 54/101/6 52/174/6 51/175/6
f 51/175/6 53/99/6 54/101/6
f 57/102/5 59/176/5 58/103/5
f 56/107/2 51/177/2 60/105/2
f 51/177/2 52/178/2 60/105/2
f 23/138/1 19/159/1 62/161/1
f 66/179/1 67/68/1 43/109/1
f 67/68/1 9/50/1 43/109/1
f 23/138/1 62/161/1 66/179/1
f 41/180/1 46/139/1 23/138/1
f 43/109/1 41/180/1 66/179/1
f 41/180/1 23/138/1 66/179/1
f 9/50/1 50/141/1 48/108/1
f 63/110/4 67/181/4 68/111/4
f 8/15/3 7/4/3 64/38/3
f 68/182/3 65/144/3 42/183/3
f 65/144/3 24/143/3 28/151/3
f 28/151/3 24/143/3 26/114/3
f 8/15/3 64/38/3 68/182/3
f 44/167/3 8/15/3 68/182/3
f 24/143/3 22/113/3 26/114/3
f 42/183/3 44/167/3 68/182/3
f 28/151/3 47/84/3 42/183/3
f 6/10/3 30/152/3 26/114/3
f 28/151/3 42/183/3 65/144/3
f 62/115/6 63/184/6 64/116/6
f 65/118/5 68/185/5 67/119/5
f 61/121/2 65/186/2 66/122/2
