# Blender v2.80 (sub 75) OBJ File: ''
# www.blender.org
mtllib cube_holes_half2.mtl
o Cube
v -0.900000 0.500000 0.550000
v -0.900000 0.300000 0.550000
v -0.900000 0.500000 0.750000
v -0.900000 0.300000 0.750000
v -0.900000 0.500000 -0.750000
v -0.900000 0.300000 -0.750000
v -0.900000 0.500000 -0.550000
v -0.900000 0.300000 -0.550000
v -0.900000 0.500000 -0.100000
v -0.900000 0.300000 -0.100000
v -0.900000 0.500000 0.100000
v -0.900000 0.300000 0.100000
v 1.000000 -1.000000 1.000000
v 1.000000 1.000000 1.000000
v 1.000000 -1.000000 -1.000000
v 1.000000 1.000000 -1.000000
v -1.000000 -1.000000 1.000000
v -1.000000 1.000000 1.000000
v -1.000000 -1.000000 -1.000000
v -1.000000 1.000000 -1.000000
v 1.000000 0.500000 -0.100000
v 1.000000 0.500000 0.100000
v 1.000000 0.300000 -0.100000
v 1.000000 0.300000 0.100000
v 1.000000 0.500000 -0.750000
v 1.000000 0.500000 -0.550000
v 1.000000 0.300000 -0.750000
v 1.000000 0.300000 -0.550000
v 1.000000 0.500000 0.550000
v 1.000000 0.500000 0.750000
v 1.000000 0.300000 0.550000
v 1.000000 0.300000 0.750000
vt 0.375000 0.250000
vt 0.625000 0.000000
vt 0.375000 0.000000
vt 0.375000 0.487500
vt 0.625000 0.250000
vt 0.125000 0.750000
vt 0.362500 0.500000
vt 0.125000 0.500000
vt 0.375000 0.250000
vt 0.625000 0.000000
vt 0.375000 0.000000
vt 0.375000 0.487500
vt 0.625000 0.250000
vt 0.125000 0.750000
vt 0.362500 0.500000
vt 0.125000 0.500000
vt 0.375000 0.250000
vt 0.625000 0.000000
vt 0.375000 0.000000
vt 0.375000 0.487500
vt 0.625000 0.250000
vt 0.125000 0.750000
vt 0.362500 0.500000
vt 0.125000 0.500000
vt 0.625000 0.000000
vt 0.375000 0.250000
vt 0.375000 0.000000
vt 0.625000 0.250000
vt 0.375000 0.500000
vt 0.375000 0.250000
vt 0.625000 0.500000
vt 0.375000 0.750000
vt 0.625000 0.750000
vt 0.375000 1.000000
vt 0.125000 0.500000
vt 0.187500 0.612500
vt 0.125000 0.750000
vt 0.875000 0.500000
vt 0.625000 0.500000
vt 0.875000 0.750000
vt 0.637500 0.500000
vt 0.637500 0.750000
vt 0.187500 0.693750
vt 0.187500 0.718750
vt 0.375000 1.000000
vt 0.625000 0.762500
vt 0.375000 0.762500
vt 0.212500 0.531250
vt 0.375000 0.500000
vt 0.875000 0.750000
vt 0.637500 0.500000
vt 0.637500 0.750000
vt 0.375000 1.000000
vt 0.625000 0.762500
vt 0.375000 0.762500
vt 0.875000 0.750000
vt 0.637500 0.500000
vt 0.637500 0.750000
vt 0.375000 1.000000
vt 0.625000 0.762500
vt 0.375000 0.762500
vt 0.187500 0.531250
vt 0.187500 0.556250
vt 0.625000 0.487500
vt 0.362500 0.750000
vt 0.625000 0.487500
vt 0.362500 0.750000
vt 0.625000 0.487500
vt 0.362500 0.750000
vt 0.625000 0.250000
vt 0.625000 0.750000
vt 0.625000 1.000000
vt 0.212500 0.612500
vt 0.187500 0.637500
vt 0.875000 0.750000
vt 0.875000 0.500000
vt 0.212500 0.637500
vt 0.212500 0.693750
vt 0.625000 1.000000
vt 0.212500 0.718750
vt 0.375000 0.750000
vt 0.212500 0.556250
vt 0.875000 0.500000
vt 0.625000 1.000000
vt 0.875000 0.500000
vt 0.625000 1.000000
vn 1.0000 -0.0000 0.0000
vn 0.0000 0.0000 -1.0000
vn 0.0000 -1.0000 0.0000
vn -1.0000 0.0000 0.0000
vn 0.0000 1.0000 0.0000
vn 0.0000 -0.0000 1.0000
usemtl Material
s off
f 3/1/1 2/2/1 1/3/1
f 30/4/2 4/5/2 3/1/2
f 1/6/3 30/7/3 3/8/3
f 7/9/1 6/10/1 5/11/1
f 26/12/2 8/13/2 7/9/2
f 5/14/3 26/15/3 7/16/3
f 11/17/1 10/18/1 9/19/1
f 22/20/2 12/21/2 11/17/2
f 9/22/3 22/23/3 11/24/3
f 17/25/3 15/26/3 13/27/3
f 15/28/2 20/29/2 16/30/2
f 19/31/4 18/32/4 20/29/4
f 14/33/5 20/34/5 18/32/5
f 14/35/1 22/36/1 16/37/1
f 17/38/6 14/33/6 18/39/6
f 10/40/5 24/41/5 23/42/5
f 26/43/1 25/44/1 16/37/1
f 9/45/6 23/46/6 21/47/6
f 32/48/1 14/35/1 13/49/1
f 6/50/5 28/51/5 27/52/5
f 5/53/6 27/54/6 25/55/6
f 2/56/5 32/57/5 31/58/5
f 1/59/6 31/60/6 29/61/6
f 14/35/1 30/62/1 29/63/1
f 3/1/1 4/5/1 2/2/1
f 30/4/2 32/64/2 4/5/2
f 1/6/3 29/65/3 30/7/3
f 7/9/1 8/13/1 6/10/1
f 26/12/2 28/66/2 8/13/2
f 5/14/3 25/67/3 26/15/3
f 11/17/1 12/21/1 10/18/1
f 22/20/2 24/68/2 12/21/2
f 9/22/3 21/69/3 22/23/3
f 17/25/3 19/70/3 15/26/3
f 15/28/2 19/31/2 20/29/2
f 19/31/4 17/71/4 18/32/4
f 14/33/5 16/72/5 20/34/5
f 14/35/1 24/73/1 22/36/1
f 22/36/1 21/74/1 16/37/1
f 17/38/6 13/75/6 14/33/6
f 10/40/5 12/76/5 24/41/5
f 16/37/1 21/74/1 26/43/1
f 21/74/1 23/77/1 26/43/1
f 23/77/1 28/78/1 26/43/1
f 9/45/6 10/79/6 23/46/6
f 27/80/1 28/78/1 15/81/1
f 28/78/1 23/77/1 15/81/1
f 24/73/1 29/63/1 31/82/1
f 23/77/1 24/73/1 15/81/1
f 24/73/1 31/82/1 13/49/1
f 31/82/1 32/48/1 13/49/1
f 24/73/1 13/49/1 15/81/1
f 16/37/1 25/44/1 27/80/1
f 15/81/1 16/37/1 27/80/1
f 6/50/5 8/83/5 28/51/5
f 5/53/6 6/84/6 27/54/6
f 2/56/5 4/85/5 32/57/5
f 1/59/6 2/86/6 31/60/6
f 14/35/1 32/48/1 30/62/1
f 29/63/1 24/73/1 14/35/1
