# Blender v2.80 (sub 75) OBJ File: ''
# www.blender.org
mtllib squarehole_smaller.mtl
o Cube
v 0.005000 0.400000 -0.500000
v 0.005000 -0.400000 -0.500000
v 0.005000 0.400000 0.500000
v 0.005000 -0.400000 0.500000
v -0.005000 0.400000 -0.500000
v -0.005000 -0.400000 -0.500000
v -0.005000 0.400000 0.500000
v -0.005000 -0.400000 0.500000
v -0.005000 -0.010000 0.010000
v 0.005000 -0.010000 0.010000
v -0.005000 -0.010000 -0.010000
v 0.005000 -0.010000 -0.010000
v -0.005000 0.010000 0.010000
v 0.005000 0.010000 0.010000
v -0.005000 0.010000 -0.010000
v 0.005000 0.010000 -0.010000
vt 0.625000 0.000000
vt 0.375000 0.250000
vt 0.375000 0.000000
vt 0.625000 0.250000
vt 0.375000 0.500000
vt 0.375000 0.250000
vt 0.496875 0.622500
vt 0.375000 0.750000
vt 0.625000 0.750000
vt 0.375000 1.000000
vt 0.125000 0.500000
vt 0.246875 0.622500
vt 0.125000 0.750000
vt 0.875000 0.500000
vt 0.625000 0.500000
vt 0.375000 0.381250
vt 0.625000 0.368750
vt 0.375000 0.368750
vt 0.503125 0.627500
vt 0.625000 0.500000
vt 0.625000 0.750000
vt 0.256250 0.750000
vt 0.243750 0.500000
vt 0.243750 0.750000
vt 0.756250 0.750000
vt 0.743750 0.500000
vt 0.743750 0.750000
vt 0.253125 0.627500
vt 0.375000 0.500000
vt 0.375000 0.750000
vt 0.375000 0.881250
vt 0.625000 0.868750
vt 0.375000 0.868750
vt 0.625000 0.250000
vt 0.503125 0.622500
vt 0.496875 0.627500
vt 0.625000 1.000000
vt 0.253125 0.622500
vt 0.246875 0.627500
vt 0.875000 0.750000
vt 0.625000 0.381250
vt 0.256250 0.500000
vt 0.756250 0.500000
vt 0.625000 0.881250
vn 0.0000 1.0000 0.0000
vn 0.0000 0.0000 1.0000
vn -1.0000 0.0000 0.0000
vn 0.0000 -1.0000 0.0000
vn 1.0000 0.0000 0.0000
vn 0.0000 0.0000 -1.0000
usemtl Material
s off
f 5/1/1 3/2/1 1/3/1
f 3/4/2 8/5/2 4/6/2
f 8/5/3 9/7/3 6/8/3
f 2/9/4 8/10/4 6/8/4
f 2/11/5 12/12/5 4/13/5
f 5/14/6 2/9/6 6/15/6
f 12/16/2 15/17/2 11/18/2
f 15/19/3 7/20/3 5/21/3
f 10/22/1 11/23/1 9/24/1
f 13/25/4 16/26/4 14/27/4
f 14/28/5 1/29/5 3/30/5
f 9/31/6 14/32/6 10/33/6
f 5/1/1 7/34/1 3/2/1
f 3/4/2 7/20/2 8/5/2
f 8/5/3 7/20/3 13/35/3
f 9/7/3 11/36/3 6/8/3
f 8/5/3 13/35/3 9/7/3
f 2/9/4 4/37/4 8/10/4
f 2/11/5 1/29/5 16/38/5
f 12/12/5 10/39/5 4/13/5
f 2/11/5 16/38/5 12/12/5
f 5/14/6 1/40/6 2/9/6
f 12/16/2 16/41/2 15/17/2
f 5/21/3 6/8/3 11/36/3
f 15/19/3 13/35/3 7/20/3
f 5/21/3 11/36/3 15/19/3
f 10/22/1 12/42/1 11/23/1
f 13/25/4 15/43/4 16/26/4
f 3/30/5 4/13/5 10/39/5
f 14/28/5 16/38/5 1/29/5
f 3/30/5 10/39/5 14/28/5
f 9/31/6 13/44/6 14/32/6
